<svg xmlns="http://www.w3.org/2000/svg" xmlns:xlink="http://www.w3.org/1999/xlink" width="324.649" height="279.305" viewBox="0 0 324.649 279.305">
  <defs>
    <linearGradient id="linear-gradient" x1="0.5" y1="1" x2="0.5" gradientUnits="objectBoundingBox">
      <stop offset="0" stop-color="gray" stop-opacity="0.251"/>
      <stop offset="0.54" stop-color="gray" stop-opacity="0.122"/>
      <stop offset="1" stop-color="gray" stop-opacity="0.102"/>
    </linearGradient>
    <linearGradient id="linear-gradient-2" x1="0.5" y1="1" x2="0.5" y2="0" xlink:href="#linear-gradient"/>
  </defs>
  <g id="undraw_gaming_6oy3" transform="translate(0.044 0.008)">
    <path id="Tracé_553" data-name="Tracé 553" d="M407.566,181.4c-12.614,21.509-10.9,50.43-5.983,73.155,1.642,7.608,3.553,15.622,1.851,24.224-2.081,10.5-9.074,18.863-16.084,23.7-12.777,8.825-27.169,8.888-37.473.166-8.9-7.539-14.6-20.887-23.706-28.01-15.233-11.916-36.589-4.048-55.246,7.781-13.2,8.369-27.748,18.929-39.68,13.378-8.4-3.906-13.455-15.32-15.675-27.811-1.074-6.029-1.662-12.631-4.3-17.188a17.5,17.5,0,0,0-6.053-5.953c-20.864-13.3-49.678-1.2-69.751-16.313-13.558-10.208-20.96-31.716-23.078-54.844s.482-47.973,3.61-72.46c2.224-17.394,5.139-36.031,13.874-50.326,9.24-15.124,23.48-22.09,35.711-20.94S188.3,39.271,197.273,49.3c11.218,12.544,21.243,28.652,36,32.464,10.055,2.6,21.16-.887,31.936-2.955,18.012-3.457,35.695-2.945,53.248-2.161,16.805.751,33.707,1.775,49.26,7.828,11.005,4.284,19.335,13.508,29.582,19.4,6.671,3.842,14.276,4.188,20.458,9.37,7.618,6.385,14.083,18.331,10.683,33.671C425.209,161.519,414.274,169.985,407.566,181.4Z" transform="translate(-111.66 -29.85)" fill="#4fc8cc" opacity="0.1"/>
    <path id="Tracé_554" data-name="Tracé 554" d="M210.793,433.686S188.616,396.954,194.839,364a64.991,64.991,0,0,0-5.272-40.784A109.353,109.353,0,0,0,179.12,306.16" transform="translate(-156.727 -214.324)" fill="none" stroke="#535461" stroke-miterlimit="10" stroke-width="2"/>
    <path id="Tracé_555" data-name="Tracé 555" d="M154.5,229.9c1.28,4.879-3.839,21.346-3.839,21.346s-12.548-11.83-13.831-16.709a9.136,9.136,0,0,1,17.67-4.653Z" transform="translate(-128.291 -158.85)" fill="#00bfa6"/>
    <path id="Tracé_556" data-name="Tracé 556" d="M220.3,289.3c-1.576,4.793-14.824,15.832-14.824,15.832s-4.1-16.749-2.526-21.542a9.133,9.133,0,1,1,17.351,5.711Z" transform="translate(-172.397 -195.065)" fill="#00bfa6"/>
    <path id="Tracé_557" data-name="Tracé 557" d="M248.671,420.748c-3.779,3.324-20.791,6.182-20.791,6.182s4.913-16.53,8.692-19.87a9.134,9.134,0,1,1,12.1,13.688Z" transform="translate(-189.28 -280.157)" fill="#00bfa6"/>
    <path id="Tracé_558" data-name="Tracé 558" d="M253.765,534.4C250.6,538.329,234.32,544,234.32,544s2.047-17.125,5.208-21.053A9.134,9.134,0,1,1,253.765,534.4Z" transform="translate(-193.579 -356.779)" fill="#00bfa6"/>
    <path id="Tracé_559" data-name="Tracé 559" d="M146.478,343.981c4.391,2.48,21.605,1.722,21.605,1.722s-8.243-15.147-12.631-17.616a9.134,9.134,0,1,0-8.974,15.9Z" transform="translate(-131.696 -228.096)" fill="#00bfa6"/>
    <path id="Tracé_560" data-name="Tracé 560" d="M146.139,472.461c4.933,1.054,21.146-4.826,21.146-4.826s-12.391-11.986-17.334-13.043a9.134,9.134,0,0,0-3.812,17.866Z" transform="translate(-129.881 -313.284)" fill="#00bfa6"/>
    <path id="Tracé_561" data-name="Tracé 561" d="M171.421,599.6c4.683,1.871,21.658-1.183,21.658-1.183s-10.194-13.91-14.878-15.782a9.134,9.134,0,0,0-6.777,16.952Z" transform="translate(-147.954 -398.544)" fill="#00bfa6"/>
    <path id="Tracé_562" data-name="Tracé 562" d="M154.5,229.9c1.28,4.879-3.839,21.346-3.839,21.346s-12.548-11.83-13.831-16.709a9.136,9.136,0,0,1,17.67-4.653Z" transform="translate(-128.291 -158.85)" fill="#43bcbc"/>
    <path id="Tracé_563" data-name="Tracé 563" d="M220.3,289.3c-1.576,4.793-14.824,15.832-14.824,15.832s-4.1-16.749-2.526-21.542a9.133,9.133,0,1,1,17.351,5.711Z" transform="translate(-172.397 -195.065)" fill="#43bcbc"/>
    <path id="Tracé_564" data-name="Tracé 564" d="M248.671,420.748c-3.779,3.324-20.791,6.182-20.791,6.182s4.913-16.53,8.692-19.87a9.134,9.134,0,1,1,12.1,13.688Z" transform="translate(-189.28 -280.157)" fill="#fc6681"/>
    <path id="Tracé_565" data-name="Tracé 565" d="M253.765,534.4C250.6,538.329,234.32,544,234.32,544s2.047-17.125,5.208-21.053A9.134,9.134,0,1,1,253.765,534.4Z" transform="translate(-193.579 -356.779)" fill="#fc6681"/>
    <path id="Tracé_566" data-name="Tracé 566" d="M146.478,343.981c4.391,2.48,21.605,1.722,21.605,1.722s-8.243-15.147-12.631-17.616a9.134,9.134,0,1,0-8.974,15.9Z" transform="translate(-131.696 -228.096)" fill="#43bcbc"/>
    <path id="Tracé_567" data-name="Tracé 567" d="M146.139,472.461c4.933,1.054,21.146-4.826,21.146-4.826s-12.391-11.986-17.334-13.043a9.134,9.134,0,0,0-3.812,17.866Z" transform="translate(-129.881 -313.284)" fill="#43bcbc"/>
    <path id="Tracé_568" data-name="Tracé 568" d="M171.421,599.6c4.683,1.871,21.658-1.183,21.658-1.183s-10.194-13.91-14.878-15.782a9.134,9.134,0,0,0-6.777,16.952Z" transform="translate(-147.954 -398.544)" fill="#43bcbc"/>
    <ellipse id="Ellipse_102" data-name="Ellipse 102" cx="159.711" cy="10.969" rx="159.711" ry="10.969" transform="translate(5.182 212.582)" fill="#4fc8cc" opacity="0.1"/>
    <path id="Tracé_569" data-name="Tracé 569" d="M880.4,392.52s-.266-.356-.635-.755l.106-.037s-4.746-11.863-3.689-16.872-4.218-17.134-4.218-17.134-7.781-15.935-4.1-28.652a34.15,34.15,0,0,0,.951-4.564c1.1-7.532.711-9.084-1.133-11.836l-.2-.3a2.327,2.327,0,0,0,.529-.781c1.582-4.218-7.379-11.863-5-18.982,2.2-6.6-3.527-20.212-4.377-22.17h0l-.1-.223-.286.093a6.954,6.954,0,0,1,1.881-4.564l.053-.053c.791-.728,1.752-1.263,2.493-2.044l.043-.05c.073-.07.15-.14.219-.213a2.864,2.864,0,0,0,.838-2.905c-.362-.9-1.379-1.456-1.619-2.4a12.37,12.37,0,0,1-.106-1.28c-.193-1.33-1.486-2.164-2.659-2.822a10.035,10.035,0,0,0-4.677-1.682c-2.28,0-4.321,1.529-6.585,1.718a9.316,9.316,0,0,0-2.3.229,5.128,5.128,0,0,0-1.512.971,7.438,7.438,0,0,0-.738.665,2.369,2.369,0,0,0-.927,1.722,1.874,1.874,0,0,0,.645,1.28,8.436,8.436,0,0,0,3.055,12.558c.027.183.053.369.08.565a21.576,21.576,0,0,1-.359,8.792c-3.786,1.951-9.686,5.132-10.743,6.545a1,1,0,0,0-.14.828,1.126,1.126,0,0,0-.02.4c-.828.189-1.928,0-3.267-1.223-3.164-2.9-13.179-11.6-13.179-11.6s-4.481-11.072-7.645-8.974,3.69,12.391,3.69,12.391l15,16.087s.529,3.427,6.063,1.582c1.828-.608,3.48-1.19,4.876-1.692l.332.283c-1.246,7.293-1.891,17.011,2.706,19.863a4.448,4.448,0,0,1,.764,1.6c-.023.086-.047.176-.066.263a25.317,25.317,0,0,0-.665,4.434,14.1,14.1,0,0,0-1.167,6.3l-1.762,25.1s-.263,5.534,1.582,9.752,7.645,25.308,3.689,26.89l.376.05c-1.133,1.167-3.041,2.935-4.494,3.284-2.207.525-1.589,3.909,3.3,4.474s5.481.519,8.921-2.35c3.031-2.526,3.513-3.656,3.583-3.9l.173.023s-1.845-6.854,0-9.752-4.215-20.558-4.215-20.558a56.976,56.976,0,0,1,.249-6.761c.931,2.436,1.6,4.125,1.6,4.125s1.582,7.645,3.427,8.974,11.6,19.508,10.018,27.415l-.183.921.445-.13h.04c-.608,1.506-1.715,3.886-2.938,4.76-1.845,1.33,0,4.218,4.746,2.9s5.272-1.582,7.382-5.534S880.4,392.52,880.4,392.52Z" transform="translate(-578.078 -178.366)" fill="url(#linear-gradient)"/>
    <path id="Tracé_570" data-name="Tracé 570" d="M907.125,459.536l-1.157-1.426a13.787,13.787,0,0,0-1.632,7.17l-1.722,24.54a24.821,24.821,0,0,0,1.546,9.536c1.8,4.125,7.475,24.743,3.61,26.288l11.584,1.566s-1.8-6.7,0-9.536-4.125-20.1-4.125-20.1-.515-14.432,4.381-17.786S907.125,459.536,907.125,459.536Z" transform="translate(-639.733 -315.768)" fill="#555388"/>
    <path id="Tracé_571" data-name="Tracé 571" d="M908.988,658.163s-3.181,3.716-5.335,4.231-1.552,3.819,3.231,4.374,5.358.509,8.725-2.3,3.517-3.859,3.517-3.859-.665-2.493-1.469-2.546S908.988,658.163,908.988,658.163Z" transform="translate(-639.642 -449.254)" fill="#603556"/>
    <path id="Tracé_572" data-name="Tracé 572" d="M907.906,460.31l-1.928-2.2a13.787,13.787,0,0,0-1.632,7.17l-1.722,24.54a24.82,24.82,0,0,0,1.546,9.536c1.8,4.125,7.475,24.743,3.61,26.288l11.58,1.566s-1.8-6.7,0-9.536-4.125-20.1-4.125-20.1-.515-14.432,4.381-17.786S907.906,460.31,907.906,460.31Z" transform="translate(-639.74 -315.768)" opacity="0.1"/>
    <path id="Tracé_573" data-name="Tracé 573" d="M458.707,335.773s-3.221-63.223-16.443-85.6c0,0-9.7-17.709-17.8-22.875v-2.041c-13.222-9.154-29.493,0-29.493,0v.9l-3.39,2.825-15.266-.053a7.356,7.356,0,0,0-5.667-2.659H300.986a7.352,7.352,0,0,0-5.418,2.373H279.714a10.132,10.132,0,0,0-3.39-2.18v-1.21c-13.222-9.154-29.493,0-29.493,0v2.456a4.354,4.354,0,0,0-1.017.934s-13.392,8.974-16.443,20.169c0,0-16.443,49.326-16.782,87.972s14.578,44.071,22.373,45.088,21.695-.332,35.256-34.568l5.764-20S277,315.444,289.2,322.9s23.051-4.068,23.051-4.068h45.769s15.24,9.48,29.154,2.008c0,0,5.425-7.12,10.51,16.952,0,0,15.6,49.5,39.664,44.41S458.707,335.773,458.707,335.773Z" transform="translate(-179.067 -157.596)" fill="url(#linear-gradient-2)"/>
    <path id="Tracé_574" data-name="Tracé 574" d="M320.84,233.575v-3.656s15.954-8.974,28.918,0v3.324Z" transform="translate(-251.341 -160.761)" fill="#535461"/>
    <path id="Tracé_575" data-name="Tracé 575" d="M757.84,233.575v-3.656s15.955-8.974,28.918,0v3.324Z" transform="translate(-543.089 -160.761)" fill="#535461"/>
    <path id="Tracé_576" data-name="Tracé 576" d="M320.84,233.575v-3.656s15.954-8.974,28.918,0v3.324Z" transform="translate(-251.341 -160.761)" opacity="0.1"/>
    <path id="Tracé_577" data-name="Tracé 577" d="M757.84,233.575v-3.656s15.955-8.974,28.918,0v3.324Z" transform="translate(-543.089 -160.761)" opacity="0.1"/>
    <path id="Tracé_578" data-name="Tracé 578" d="M301.263,239.217H285.641s-3.989-4.653-17.284-4.321-15.954,4.321-15.954,4.321-13.129,8.808-16.121,19.777c0,0-16.121,48.362-16.453,86.254s14.293,43.21,21.937,44.207,21.273-.332,34.568-33.9l5.651-19.611s1-11.633,12.963-4.321,22.6-3.989,22.6-3.989h44.872s14.957,9.307,28.585,1.994c0,0,5.318-6.98,10.3,16.619,0,0,15.29,48.528,38.889,43.542s20.94-45.537,20.94-45.537-3.158-61.99-16.121-83.927c0,0-12.464-22.768-20.774-23.766,0,0-17.949-3.324-24.929-.332l-3.989,3.324Z" transform="translate(-183.901 -166.735)" fill="#535461"/>
    <circle id="Ellipse_103" data-name="Ellipse 103" cx="28.918" cy="28.918" r="28.918" transform="translate(52.215 76.138)" fill="#e2e2ec"/>
    <circle id="Ellipse_104" data-name="Ellipse 104" cx="28.918" cy="28.918" r="28.918" transform="translate(203.118 76.138)" fill="#e2e2ec"/>
    <path id="Tracé_579" data-name="Tracé 579" d="M349.536,301.428l-3.856,3.41a1.788,1.788,0,0,1-2.363,0l-3.862-3.41a1.785,1.785,0,0,1-.6-1.33v-9.383a1.788,1.788,0,0,1,1.788-1.785h7.728a1.785,1.785,0,0,1,1.788,1.788v9.373A1.785,1.785,0,0,1,349.536,301.428Z" transform="translate(-263.365 -202.821)" fill="#535461"/>
    <path id="Tracé_580" data-name="Tracé 580" d="M349.536,357.581l-3.856-3.407a1.788,1.788,0,0,0-2.363,0l-3.862,3.41a1.785,1.785,0,0,0-.6,1.33v9.373a1.785,1.785,0,0,0,1.788,1.788h7.728a1.785,1.785,0,0,0,1.788-1.785v-9.373A1.785,1.785,0,0,0,349.536,357.581Z" transform="translate(-263.365 -246.081)" fill="#535461"/>
    <path id="Tracé_581" data-name="Tracé 581" d="M311.368,339.633l3.41-3.862a1.788,1.788,0,0,0,0-2.363l-3.41-3.862a1.788,1.788,0,0,0-1.33-.6h-9.373a1.788,1.788,0,0,0-1.785,1.788v7.728a1.785,1.785,0,0,0,1.788,1.788h9.373a1.785,1.785,0,0,0,1.326-.612Z" transform="translate(-236.68 -229.532)" fill="#535461"/>
    <path id="Tracé_582" data-name="Tracé 582" d="M367.506,339.626l-3.4-3.866a1.785,1.785,0,0,1,0-2.363l3.41-3.862a1.785,1.785,0,0,1,1.33-.6h9.373A1.785,1.785,0,0,1,380,330.718v7.728a1.785,1.785,0,0,1-1.785,1.788h-9.373A1.785,1.785,0,0,1,367.506,339.626Z" transform="translate(-279.925 -229.525)" fill="#535461"/>
    <path id="Tracé_583" data-name="Tracé 583" d="M229.18,243.4h9.972l-4.986-4.321Z" transform="translate(-153.033 -159.618)" fill="none" stroke="#535461" stroke-miterlimit="10" stroke-width="2"/>
    <path id="Tracé_584" data-name="Tracé 584" d="M229.18,380.08h9.972l-4.986,4.321Z" transform="translate(-153.033 -253.752)" fill="none" stroke="#535461" stroke-miterlimit="10" stroke-width="2"/>
    <path id="Tracé_585" data-name="Tracé 585" d="M171.5,301.08v9.972l-4.321-4.986Z" transform="translate(-111.641 -201.011)" fill="none" stroke="#535461" stroke-miterlimit="10" stroke-width="2"/>
    <path id="Tracé_586" data-name="Tracé 586" d="M308.18,301.08v9.972l4.321-4.986Z" transform="translate(-205.775 -201.011)" fill="none" stroke="#535461" stroke-miterlimit="10" stroke-width="2"/>
    <circle id="Ellipse_105" data-name="Ellipse 105" cx="20.94" cy="20.94" r="20.94" transform="translate(99.414 115.692)" fill="#e2e2ec"/>
    <circle id="Ellipse_106" data-name="Ellipse 106" cx="13.96" cy="13.96" r="13.96" transform="translate(105.729 119.348)" fill="#535461"/>
    <circle id="Ellipse_107" data-name="Ellipse 107" cx="20.94" cy="20.94" r="20.94" transform="translate(171.874 115.692)" fill="#e2e2ec"/>
    <circle id="Ellipse_108" data-name="Ellipse 108" cx="13.96" cy="13.96" r="13.96" transform="translate(178.189 119.348)" fill="#535461"/>
    <circle id="Ellipse_109" data-name="Ellipse 109" cx="9.307" cy="9.307" r="9.307" transform="translate(110.382 124.001)" fill="none" stroke="#000" stroke-miterlimit="10" stroke-width="2" opacity="0.1"/>
    <circle id="Ellipse_110" data-name="Ellipse 110" cx="9.307" cy="9.307" r="9.307" transform="translate(182.842 124.001)" fill="none" stroke="#000" stroke-miterlimit="10" stroke-width="2" opacity="0.1"/>
    <circle id="Ellipse_111" data-name="Ellipse 111" cx="5.983" cy="5.983" r="5.983" transform="translate(151.266 132.976)" fill="#e2e2ec"/>
    <circle id="Ellipse_112" data-name="Ellipse 112" cx="1.306" cy="1.306" r="1.306" transform="translate(146.798 117.683)" fill="#e2e2ec"/>
    <circle id="Ellipse_113" data-name="Ellipse 113" cx="1.306" cy="1.306" r="1.306" transform="translate(151.691 117.683)" fill="#e2e2ec"/>
    <circle id="Ellipse_114" data-name="Ellipse 114" cx="1.306" cy="1.306" r="1.306" transform="translate(151.04 123.882)" fill="#e2e2ec"/>
    <circle id="Ellipse_115" data-name="Ellipse 115" cx="1.33" cy="1.33" r="1.33" transform="translate(155.587 124.001)" fill="#e2e2ec"/>
    <circle id="Ellipse_116" data-name="Ellipse 116" cx="1.306" cy="1.306" r="1.306" transform="translate(160.174 123.882)" fill="#e2e2ec"/>
    <circle id="Ellipse_117" data-name="Ellipse 117" cx="1.306" cy="1.306" r="1.306" transform="translate(149.082 120.947)" fill="#e2e2ec"/>
    <circle id="Ellipse_118" data-name="Ellipse 118" cx="1.33" cy="1.33" r="1.33" transform="translate(153.26 121.01)" fill="#e2e2ec"/>
    <circle id="Ellipse_119" data-name="Ellipse 119" cx="1.33" cy="1.33" r="1.33" transform="translate(157.581 121.01)" fill="#e2e2ec"/>
    <circle id="Ellipse_120" data-name="Ellipse 120" cx="1.306" cy="1.306" r="1.306" transform="translate(162.131 120.947)" fill="#e2e2ec"/>
    <circle id="Ellipse_121" data-name="Ellipse 121" cx="1.33" cy="1.33" r="1.33" transform="translate(155.587 117.686)" fill="#e2e2ec"/>
    <circle id="Ellipse_122" data-name="Ellipse 122" cx="1.33" cy="1.33" r="1.33" transform="translate(160.24 117.686)" fill="#e2e2ec"/>
    <circle id="Ellipse_123" data-name="Ellipse 123" cx="1.306" cy="1.306" r="1.306" transform="translate(164.089 117.683)" fill="#e2e2ec"/>
    <rect id="Rectangle_179" data-name="Rectangle 179" width="7.312" height="12.631" rx="3.656" transform="translate(104.732 74.808)" fill="#e2e2ec"/>
    <rect id="Rectangle_180" data-name="Rectangle 180" width="7.312" height="12.631" rx="3.656" transform="translate(201.788 74.808)" fill="#e2e2ec"/>
    <circle id="Ellipse_124" data-name="Ellipse 124" cx="7.977" cy="7.977" r="7.977" transform="translate(224.39 79.462)" fill="#535461"/>
    <circle id="Ellipse_125" data-name="Ellipse 125" cx="7.977" cy="7.977" r="7.977" transform="translate(207.439 96.413)" fill="#535461"/>
    <circle id="Ellipse_126" data-name="Ellipse 126" cx="7.977" cy="7.977" r="7.977" transform="translate(242.007 95.416)" fill="#535461"/>
    <circle id="Ellipse_127" data-name="Ellipse 127" cx="7.977" cy="7.977" r="7.977" transform="translate(225.72 113.032)" fill="#535461"/>
    <rect id="Rectangle_181" data-name="Rectangle 181" width="82.764" height="44.207" rx="21.75" transform="translate(115.368 70.155)" fill="#e2e2ec"/>
    <path id="Tracé_587" data-name="Tracé 587" d="M684.68,257.057l4.653-7.977,4.986,7.977Z" transform="translate(-457.132 -166.295)" fill="none" stroke="#e2e2ec" stroke-miterlimit="10" stroke-width="2"/>
    <rect id="Rectangle_182" data-name="Rectangle 182" width="8.31" height="7.312" transform="translate(211.261 100.734)" fill="none" stroke="#e2e2ec" stroke-miterlimit="10" stroke-width="2"/>
    <circle id="Ellipse_128" data-name="Ellipse 128" cx="4.653" cy="4.653" r="4.653" transform="translate(245.331 98.74)" fill="none" stroke="#e2e2ec" stroke-miterlimit="10" stroke-width="2"/>
    <line id="Ligne_54" data-name="Ligne 54" x2="7.479" y2="7.479" transform="translate(229.875 117.27)" fill="none" stroke="#e2e2ec" stroke-miterlimit="10" stroke-width="2"/>
    <line id="Ligne_55" data-name="Ligne 55" x1="7.645" y2="7.312" transform="translate(229.875 117.27)" fill="none" stroke="#e2e2ec" stroke-miterlimit="10" stroke-width="2"/>
    <path id="Tracé_588" data-name="Tracé 588" d="M412.138,676.816a5.672,5.672,0,0,0,2.234-2.749,2.327,2.327,0,0,0-1.559-2.8c-1.433-.445-2.962.362-4.125,1.18s-2.49,1.752-4.009,1.579a4.46,4.46,0,0,0,1.888-4.653,1.805,1.805,0,0,0-.525-.947c-.794-.695-2.237-.4-3.188.15-3.028,1.738-3.872,5.092-3.889,8.114a12.639,12.639,0,0,1-.056-3.344,3.185,3.185,0,0,0-1.539-2.958,5.5,5.5,0,0,0-2.347-.449,5.637,5.637,0,0,0-3.806.884c-1.153,1-.854,2.7.15,3.812a14.66,14.66,0,0,0,3.939,2.576,8.206,8.206,0,0,1,2.815,2.19,2,2,0,0,1,.209.392h8.532a24.534,24.534,0,0,0,5.275-2.978Z" transform="translate(-297.831 -455.908)" fill="#43bcbc"/>
    <path id="Tracé_589" data-name="Tracé 589" d="M979.826,667.723s-1.546,4.653-3.35,5.93,0,4.125,4.653,2.835,5.155-1.546,7.216-5.411,1.8-4.9,1.8-4.9-1.546-2.061-2.327-1.8S979.826,667.723,979.826,667.723Z" transform="translate(-688.593 -453.459)" fill="#603556"/>
    <path id="Tracé_590" data-name="Tracé 590" d="M925.657,305.636s-20.877,11.6-15.981,8.246c3.291-2.25,3.091-8.223,2.606-11.9-.153-1.147-.332-2.071-.442-2.589-.063-.293-.1-.455-.1-.455s10.124-6.076,9.556-2.423h0a.211.211,0,0,1-.017.1,3.941,3.941,0,0,0-.076.741C921.13,301.109,925.657,305.636,925.657,305.636Z" transform="translate(-643.96 -207.102)" fill="#c87486"/>
    <path id="Tracé_591" data-name="Tracé 591" d="M838.62,319.527s-1.8,2.835-4.9,0-12.887-11.341-12.887-11.341-4.381-10.826-7.479-8.762,3.61,12.115,3.61,12.115l14.691,15.722s.515,3.35,5.93,1.546,9.28-3.35,9.28-3.35Z" transform="translate(-579.608 -209.652)" fill="#c87486"/>
    <path id="Tracé_592" data-name="Tracé 592" d="M915.83,439.53" transform="translate(-648.565 -303.363)" fill="none"/>
    <path id="Tracé_593" data-name="Tracé 593" d="M949.185,509.612l-10.3,3.61-.435.126.179-.9c1.546-7.731-7.977-25.517-9.8-26.807s-3.357-8.772-3.357-8.772-3.377-17.011-3.892-20.608a7.481,7.481,0,0,0-1.173-2.609,20.651,20.651,0,0,1-1.994-4.773c-1.133-3.989-3.776-11.068-2.805-15.074.2-.814-.6,1.266-.332.472l.156-.439L936.3,431a15.583,15.583,0,0,1,.971,1.313c1.579,2.343,1.476,2.343,1.808,6.8a45.957,45.957,0,0,1-1.133,7.977c-2.809,12.508,3.527,29.25,3.527,29.25s5.155,11.856,4.125,16.752S949.185,509.612,949.185,509.612Z" transform="translate(-648.156 -297.669)" fill="#555388"/>
    <path id="Tracé_594" data-name="Tracé 594" d="M935.935,432.31c-3.088,3.872-22.868,6.88-22.622,5.651a2.612,2.612,0,0,0-.093-1.27,25.127,25.127,0,0,1,.711-2.416l.156-.439L934.965,431A15.569,15.569,0,0,1,935.935,432.31Z" transform="translate(-646.823 -297.669)" opacity="0.1"/>
    <path id="Tracé_595" data-name="Tracé 595" d="M924.929,310s-8.509,2.586-10.836,8.516,1.765,6.252,1.765,6.252-7.312,19.278-5.375,29.316a3.652,3.652,0,0,1,.775,2.576c-.256,1.286,21.392-2.061,22.935-6.186s-7.216-11.6-4.9-18.557S924.929,310,924.929,310Z" transform="translate(-644.778 -216.887)" fill="#dfe5ee"/>
    <path id="Tracé_596" data-name="Tracé 596" d="M927.11,298.172a.813.813,0,0,1-.076.223c-.352.665-1.472-.063-1.084.934-1.5,1.5-1.968,4.51-4.251,4.51a8.2,8.2,0,0,1-3.586-.814c-.153-1.147-.332-2.071-.442-2.589,1-.592,8.974-5.212,9.453-2.878h0A1.532,1.532,0,0,1,927.11,298.172Z" transform="translate(-649.794 -208.144)" opacity="0.1"/>
    <circle id="Ellipse_129" data-name="Ellipse 129" cx="8.246" cy="8.246" r="8.246" transform="translate(263.655 78.69)" fill="#c87486"/>
    <path id="Tracé_597" data-name="Tracé 597" d="M908.71,348.806l-14.432,6.7s-9.8-7.472-8.25-9.529S899.689,338,899.689,338,912.06,340.559,908.71,348.806Z" transform="translate(-628.558 -235.581)" opacity="0.1"/>
    <path id="Tracé_598" data-name="Tracé 598" d="M908.715,347.282l-14.432,6.7s-9.8-7.475-8.247-9.536S899.7,336.47,899.7,336.47,912.066,339.023,908.715,347.282Z" transform="translate(-628.564 -234.559)" fill="#dfe5ee"/>
    <path id="Tracé_599" data-name="Tracé 599" d="M912.792,265.635a8.958,8.958,0,0,1-3.656-.9,2.2,2.2,0,0,1-1.236-1.705c-.023-.864.7-1.539,1.373-2.087a5.011,5.011,0,0,1,1.479-.947,9.046,9.046,0,0,1,2.25-.223c2.22-.186,4.208-1.7,6.438-1.682a9.608,9.608,0,0,1,4.57,1.645c1.14.645,2.406,1.462,2.6,2.759a12.1,12.1,0,0,0,.1,1.25c.236.924,1.23,1.462,1.586,2.347a2.808,2.808,0,0,1-.821,2.842c-.718.755-1.662,1.273-2.417,1.978a6.774,6.774,0,0,0-2.167,5.1.664.664,0,0,1-.057.369.645.645,0,0,1-.465.233c-.821.153-1.835.236-2.327-.442s-.1-1.808-.665-2.476c-.715-.861-2.217-.176-3.184-.741a1.934,1.934,0,0,1-.731-.874c-.8-1.718.116-3.068.449-4.71C916.3,265.449,914.144,265.771,912.792,265.635Z" transform="translate(-643.27 -182.231)" opacity="0.1"/>
    <path id="Tracé_600" data-name="Tracé 600" d="M913.572,264.845a8.959,8.959,0,0,1-3.656-.9,2.2,2.2,0,0,1-1.236-1.705c-.023-.864.7-1.539,1.373-2.087a5.012,5.012,0,0,1,1.479-.947,9.043,9.043,0,0,1,2.25-.223c2.22-.186,4.208-1.7,6.438-1.682a9.608,9.608,0,0,1,4.57,1.645c1.14.645,2.406,1.462,2.6,2.759a12.081,12.081,0,0,0,.1,1.25c.236.924,1.23,1.462,1.585,2.347a2.808,2.808,0,0,1-.821,2.842c-.718.755-1.662,1.273-2.417,1.978a6.774,6.774,0,0,0-2.17,5.112.665.665,0,0,1-.056.369.645.645,0,0,1-.465.233c-.821.153-1.835.236-2.327-.442s-.1-1.808-.665-2.476c-.715-.861-2.217-.176-3.184-.741a1.934,1.934,0,0,1-.731-.874c-.8-1.722.113-3.081.445-4.74C917.075,264.662,914.921,264.988,913.572,264.845Z" transform="translate(-643.791 -181.704)" fill="#603456"/>
  </g>
</svg>
