<svg xmlns="http://www.w3.org/2000/svg" width="151.685" height="130.096" viewBox="0 0 151.685 130.096">
  <g id="undraw_Typing_re_d4sq" transform="translate(0)">
    <path id="Tracé_491" data-name="Tracé 491" d="M820.972,561.809a1.253,1.253,0,0,1-1.249-1.171l-.186-2.839a1.253,1.253,0,0,1,1.168-1.332l22.245-1.457a2.676,2.676,0,0,1,.35,5.34l-22.245,1.457Z" transform="translate(-704.424 -471.173)" fill="#00bfa6"/>
    <path id="Tracé_492" data-name="Tracé 492" d="M845.614,560.986a1.255,1.255,0,0,1-1.252-1.206l-.159-4.241a1.253,1.253,0,0,1,1.206-1.3l18.293-.684a1.253,1.253,0,0,1,1.3,1.206L865.16,559a1.253,1.253,0,0,1-1.205,1.3l-18.293.684Z" transform="translate(-724.679 -469.984)" fill="#2f2e41"/>
    <path id="Tracé_493" data-name="Tracé 493" d="M953.118,693.28h-2.846a1.255,1.255,0,0,1-1.253-1.253V668.312a1.255,1.255,0,0,1,1.253-1.253h2.846a1.254,1.254,0,0,1,1.253,1.253v23.716A1.254,1.254,0,0,1,953.118,693.28Z" transform="translate(-810.747 -563.184)" fill="#2f2e41"/>
    <path id="Tracé_494" data-name="Tracé 494" d="M915.118,693.28h-2.846a1.255,1.255,0,0,1-1.253-1.253V668.312a1.255,1.255,0,0,1,1.253-1.253h2.846a1.255,1.255,0,0,1,1.253,1.253v23.716A1.254,1.254,0,0,1,915.118,693.28Z" transform="translate(-779.544 -563.184)" fill="#2f2e41"/>
    <circle id="Ellipse_73" data-name="Ellipse 73" cx="9.832" cy="9.832" r="9.832" transform="translate(128.217 59.46)" fill="#00bfa6"/>
    <path id="Tracé_495" data-name="Tracé 495" d="M911.982,463.076a2.333,2.333,0,0,1-.852-.5,1.568,1.568,0,0,1-.458-1.241,1.055,1.055,0,0,1,.469-.812,1.364,1.364,0,0,1,1.3-.015l-.018-3.838.386,0,.021,4.512-.3-.187a1.168,1.168,0,0,0-1.184-.146.678.678,0,0,0-.293.524,1.185,1.185,0,0,0,.341.926,3.187,3.187,0,0,0,1.755.647l-.061.381A6.352,6.352,0,0,1,911.982,463.076Z" transform="translate(-779.254 -390.427)" fill="#2f2e41"/>
    <rect id="Rectangle_172" data-name="Rectangle 172" width="0.386" height="2.077" transform="translate(129.144 66.431) rotate(-82.477)" fill="#2f2e41"/>
    <rect id="Rectangle_173" data-name="Rectangle 173" width="0.386" height="2.077" transform="translate(135.643 67.289) rotate(-82.477)" fill="#2f2e41"/>
    <path id="Tracé_496" data-name="Tracé 496" d="M908.276,572.461H893.5a1.642,1.642,0,0,1-1.591-1.245,1.609,1.609,0,0,1-.022-.594s2.887-16.214,4.316-24a4.932,4.932,0,0,1,4.852-4.042h0a10.663,10.663,0,0,1,10.663,10.663v15.782a3.437,3.437,0,0,1-3.437,3.437Z" transform="translate(-763.815 -460.97)" fill="#2f2e41"/>
    <path id="Tracé_497" data-name="Tracé 497" d="M943.728,580.289a1.255,1.255,0,0,1-1.174.693l-2.843-.12a1.253,1.253,0,0,1-1.2-1.3l.938-22.273a2.676,2.676,0,1,1,5.347.225l-.938,22.273A1.248,1.248,0,0,1,943.728,580.289Z" transform="translate(-802.117 -470.941)" fill="#00bfa6"/>
    <path id="Tracé_498" data-name="Tracé 498" d="M942.623,571.427a1.255,1.255,0,0,1-1.174.693l-4.856-.2a1.255,1.255,0,0,1-1.2-1.3l.771-18.289a1.253,1.253,0,0,1,1.3-1.2l4.856.2a1.253,1.253,0,0,1,1.2,1.3l-.77,18.29a1.248,1.248,0,0,1-.13.506Z" transform="translate(-799.557 -467.985)" fill="#2f2e41"/>
    <path id="Tracé_499" data-name="Tracé 499" d="M909.181,397.674c-2.121.836-5.325,1.725-6.724-.758a4.058,4.058,0,0,1-.23-3.334,5.923,5.923,0,0,1,2.344-2.818,8.589,8.589,0,0,1,6.577-1.132,8.973,8.973,0,0,1,3.139,1.349,11.119,11.119,0,0,1,2.606,2.786,6.768,6.768,0,0,0,2.951,2.617,2.831,2.831,0,0,0,3.11-.7,2.18,2.18,0,0,0,.392-.7c.111-.328-.407-.468-.517-.143a2.166,2.166,0,0,1-2.842,1.033c-1.34-.49-2.186-1.764-2.989-2.864a9.981,9.981,0,0,0-2.727-2.674,9.469,9.469,0,0,0-3.256-1.271,9.083,9.083,0,0,0-6.8,1.3,6.568,6.568,0,0,0-2.445,2.922,4.631,4.631,0,0,0,.032,3.514,3.729,3.729,0,0,0,2.7,2.2,7.578,7.578,0,0,0,3.882-.457c.316-.107.628-.224.939-.347s.179-.644-.143-.517Z" transform="translate(-771.678 -334.768)" fill="#2f2e41"/>
    <path id="Tracé_500" data-name="Tracé 500" d="M184.609,86.347h67.314a8.618,8.618,0,0,1,8.608,8.608v36.826a8.618,8.618,0,0,1-8.608,8.608H184.609A8.618,8.618,0,0,1,176,131.781V94.956A8.618,8.618,0,0,1,184.609,86.347Z" transform="translate(-176.001 -86.347)" fill="#f2f2f2"/>
    <path id="Tracé_501" data-name="Tracé 501" d="M195.986,100.2H263.3a6.137,6.137,0,0,1,6.13,6.13v36.826a6.137,6.137,0,0,1-6.13,6.13H195.986a6.137,6.137,0,0,1-6.13-6.13V106.331A6.137,6.137,0,0,1,195.986,100.2Z" transform="translate(-187.378 -97.723)" fill="#fff"/>
    <path id="Tracé_502" data-name="Tracé 502" d="M220.774,394.126a1.545,1.545,0,0,1-.591-.12,1.5,1.5,0,0,1-.939-1.4V379.871l16.972-.571-14.377,14.377A1.5,1.5,0,0,1,220.774,394.126Z" transform="translate(-211.509 -326.898)" fill="#f2f2f2"/>
    <rect id="Rectangle_174" data-name="Rectangle 174" width="57.955" height="7.339" rx="3.669" transform="translate(13.205 11.638)" fill="#f2f2f2"/>
    <rect id="Rectangle_175" data-name="Rectangle 175" width="57.955" height="7.339" rx="3.669" transform="translate(13.287 23.352)" fill="#f2f2f2"/>
    <rect id="Rectangle_176" data-name="Rectangle 176" width="57.955" height="7.339" rx="3.669" transform="translate(13.369 35.066)" fill="#f2f2f2"/>
    <path id="Tracé_503" data-name="Tracé 503" d="M469.84,191.347H402.526a8.618,8.618,0,0,0-8.608,8.608v36.826a8.618,8.618,0,0,0,8.608,8.608H469.84a8.618,8.618,0,0,0,8.608-8.608V199.955A8.618,8.618,0,0,0,469.84,191.347Z" transform="translate(-354.939 -172.565)" fill="#e6e6e6"/>
    <path id="Tracé_504" data-name="Tracé 504" d="M481.216,205.2H413.9a6.137,6.137,0,0,0-6.13,6.13v36.826a6.137,6.137,0,0,0,6.13,6.13h67.314a6.137,6.137,0,0,0,6.13-6.13V211.331A6.137,6.137,0,0,0,481.216,205.2Z" transform="translate(-366.314 -183.941)" fill="#fff"/>
    <path id="Tracé_505" data-name="Tracé 505" d="M723.738,498.677,709.361,484.3l16.972.571V497.6a1.5,1.5,0,0,1-.939,1.4,1.542,1.542,0,0,1-.591.12A1.5,1.5,0,0,1,723.738,498.677Z" transform="translate(-613.957 -413.117)" fill="#e6e6e6"/>
    <circle id="Ellipse_74" data-name="Ellipse 74" cx="4.651" cy="4.651" r="4.651" transform="translate(61.747 41.152)" fill="#00bfa6"/>
    <circle id="Ellipse_75" data-name="Ellipse 75" cx="4.651" cy="4.651" r="4.651" transform="translate(76.594 41.152)" fill="#00bfa6"/>
    <circle id="Ellipse_76" data-name="Ellipse 76" cx="4.651" cy="4.651" r="4.651" transform="translate(91.44 41.152)" fill="#00bfa6"/>
  </g>
</svg>
