<svg xmlns="http://www.w3.org/2000/svg" width="30.338" height="24.64" viewBox="0 0 30.338 24.64">
  <path id="Icon_awesome-twitter" data-name="Icon awesome-twitter" d="M27.219,9.521c.019.269.019.539.019.809,0,8.22-6.256,17.691-17.691,17.691A17.571,17.571,0,0,1,0,25.229a12.863,12.863,0,0,0,1.5.077A12.452,12.452,0,0,0,9.221,22.65a6.229,6.229,0,0,1-5.813-4.312,7.841,7.841,0,0,0,1.174.1,6.576,6.576,0,0,0,1.636-.212,6.218,6.218,0,0,1-4.986-6.1v-.077a6.262,6.262,0,0,0,2.81.789A6.227,6.227,0,0,1,2.117,4.516a17.673,17.673,0,0,0,12.82,6.506A7.019,7.019,0,0,1,14.784,9.6,6.224,6.224,0,0,1,25.544,5.344a12.241,12.241,0,0,0,3.946-1.5,6.2,6.2,0,0,1-2.733,3.426,12.465,12.465,0,0,0,3.58-.962,13.366,13.366,0,0,1-3.118,3.215Z" transform="translate(0 -3.381)" fill="#fff"/>
</svg>
