<svg xmlns="http://www.w3.org/2000/svg" width="19.547" height="34.563" viewBox="0 0 19.547 34.563">
  <path id="Icon_material-attach-money" data-name="Icon material-attach-money" d="M20,19.669c-4.359-1.133-5.76-2.3-5.76-4.128,0-2.093,1.939-3.552,5.184-3.552,3.418,0,4.685,1.632,4.8,4.032H28.47a7.654,7.654,0,0,0-6.164-7.316V4.5h-5.76V8.647c-3.725.806-6.72,3.226-6.72,6.932,0,4.436,3.667,6.644,9.025,7.93,4.8,1.152,5.76,2.842,5.76,4.628,0,1.325-.941,3.437-5.184,3.437-3.955,0-5.511-1.767-5.722-4.032H9.48c.23,4.205,3.379,6.567,7.066,7.354v4.167h5.76V34.934c3.744-.71,6.72-2.88,6.72-6.816C29.027,22.665,24.361,20.8,20,19.669Z" transform="translate(-9.48 -4.5)" fill="#e2e2e2"/>
</svg>
