<svg xmlns="http://www.w3.org/2000/svg" width="289" height="309" viewBox="0 0 289 309">
  <g id="dashboard" transform="translate(-62 -709)">
    <rect id="Rectangle_221" data-name="Rectangle 221" width="289" height="309" rx="15" transform="translate(62 709)" fill="#c7e0eb"/>
    <path id="Rectangle_222" data-name="Rectangle 222" d="M0,0H289a0,0,0,0,1,0,0V103a15,15,0,0,1-15,15H15A15,15,0,0,1,0,103V0A0,0,0,0,1,0,0Z" transform="translate(62 900)" fill="#a8dcf2"/>
    <g id="undraw_Updated_resume_re_q1or" transform="translate(91 764.11)">
      <rect id="Rectangle_62" data-name="Rectangle 62" width="208.465" height="98.92" transform="translate(0.089 5.715)" fill="#e6e6e6"/>
      <rect id="Rectangle_75" data-name="Rectangle 75" width="196.543" height="82.532" transform="translate(6.05 14.198)" fill="#fff"/>
      <rect id="Rectangle_80" data-name="Rectangle 80" width="208.465" height="8.856" fill="#47baeb"/>
      <circle id="Ellipse_90" data-name="Ellipse 90" cx="1.641" cy="1.641" r="1.641" transform="translate(4.94 3.566)" fill="#fff"/>
      <circle id="Ellipse_91" data-name="Ellipse 91" cx="1.641" cy="1.641" r="1.641" transform="translate(11.17 3.566)" fill="#fff"/>
      <circle id="Ellipse_92" data-name="Ellipse 92" cx="1.641" cy="1.641" r="1.641" transform="translate(17.401 3.566)" fill="#fff"/>
      <rect id="Rectangle_199" data-name="Rectangle 199" width="27.681" height="2.081" transform="translate(119.304 26.746)" fill="#e6e6e6"/>
      <rect id="Rectangle_200" data-name="Rectangle 200" width="42.745" height="2.081" transform="translate(119.304 32.854)" fill="#47baeb"/>
      <rect id="Rectangle_201" data-name="Rectangle 201" width="34.836" height="2.081" transform="translate(119.748 38.67)" fill="#e6e6e6"/>
      <rect id="Rectangle_202" data-name="Rectangle 202" width="20.337" height="2.081" transform="translate(119.304 45.053)" fill="#e6e6e6"/>
      <rect id="Rectangle_203" data-name="Rectangle 203" width="30.694" height="2.081" transform="translate(119.304 51.287)" fill="#47baeb"/>
      <rect id="Rectangle_204" data-name="Rectangle 204" width="3.389" height="3.389" transform="translate(106.688 26.091)" fill="#e6e6e6"/>
      <rect id="Rectangle_205" data-name="Rectangle 205" width="3.389" height="3.389" transform="translate(106.688 32.199)" fill="#47baeb"/>
      <rect id="Rectangle_206" data-name="Rectangle 206" width="3.389" height="3.389" transform="translate(106.688 38.016)" fill="#e6e6e6"/>
      <rect id="Rectangle_207" data-name="Rectangle 207" width="3.389" height="3.389" transform="translate(106.688 44.398)" fill="#e6e6e6"/>
      <rect id="Rectangle_208" data-name="Rectangle 208" width="3.389" height="3.389" transform="translate(106.688 50.633)" fill="#47baeb"/>
      <rect id="Rectangle_209" data-name="Rectangle 209" width="27.681" height="2.081" transform="translate(119.304 57.56)" fill="#e6e6e6"/>
      <rect id="Rectangle_210" data-name="Rectangle 210" width="42.745" height="2.081" transform="translate(119.304 63.668)" fill="#47baeb"/>
      <rect id="Rectangle_211" data-name="Rectangle 211" width="34.836" height="2.081" transform="translate(119.748 69.485)" fill="#e6e6e6"/>
      <rect id="Rectangle_212" data-name="Rectangle 212" width="20.337" height="2.081" transform="translate(119.304 75.867)" fill="#e6e6e6"/>
      <rect id="Rectangle_213" data-name="Rectangle 213" width="30.694" height="2.081" transform="translate(119.304 82.101)" fill="#e6e6e6"/>
      <rect id="Rectangle_214" data-name="Rectangle 214" width="3.389" height="3.389" transform="translate(106.688 56.906)" fill="#e6e6e6"/>
      <rect id="Rectangle_215" data-name="Rectangle 215" width="3.389" height="3.389" transform="translate(106.688 63.014)" fill="#47baeb"/>
      <rect id="Rectangle_216" data-name="Rectangle 216" width="3.389" height="3.389" transform="translate(106.688 68.83)" fill="#e6e6e6"/>
      <rect id="Rectangle_217" data-name="Rectangle 217" width="3.389" height="3.389" transform="translate(106.688 75.213)" fill="#e6e6e6"/>
      <rect id="Rectangle_218" data-name="Rectangle 218" width="3.389" height="3.389" transform="translate(106.688 81.447)" fill="#e6e6e6"/>
      <rect id="Rectangle_219" data-name="Rectangle 219" width="27.681" height="2.081" transform="translate(31.737 73.88)" fill="#3f3d56"/>
      <rect id="Rectangle_220" data-name="Rectangle 220" width="34.836" height="2.081" transform="translate(28.033 79.286)" fill="#3f3d56"/>
      <path id="Tracé_611" data-name="Tracé 611" d="M339.021,277.868a18.081,18.081,0,0,1-26.644,15.917l0,0a18.075,18.075,0,1,1,26.648-15.914Z" transform="translate(-275.453 -230.233)" fill="#3f3d56"/>
      <circle id="Ellipse_131" data-name="Ellipse 131" cx="4.913" cy="4.913" r="4.913" transform="translate(40.673 36.931)" fill="#fff"/>
      <path id="Tracé_612" data-name="Tracé 612" d="M352.222,334.778a25.324,25.324,0,0,1-16.96-.066l0,0,3.66-7.225h9.827Z" transform="translate(-298.246 -277.868)" fill="#fff"/>
      <path id="Tracé_613" data-name="Tracé 613" d="M643.341,534.117h-3.632l-1.728-14.011h5.361Z" transform="translate(-448.951 -366.002)" fill="#ffb7b7"/>
      <path id="Tracé_614" data-name="Tracé 614" d="M841.721,728.126H830.008v-.148a4.559,4.559,0,0,1,4.558-4.559h7.154Z" transform="translate(-646.405 -556.49)" fill="#2f2e41"/>
      <path id="Tracé_615" data-name="Tracé 615" d="M686.014,534.117h3.633l1.728-14.011h-5.361Z" transform="translate(-482.753 -366.002)" fill="#ffb7b7"/>
      <path id="Tracé_616" data-name="Tracé 616" d="M893.229,723.419h7.154a4.559,4.559,0,0,1,4.559,4.558v.148H893.229Z" transform="translate(-690.894 -556.49)" fill="#2f2e41"/>
      <circle id="Ellipse_132" data-name="Ellipse 132" cx="6.349" cy="6.349" r="6.349" transform="translate(179.385 58.66) rotate(-63.58)" fill="#ffb7b7"/>
      <path id="Tracé_617" data-name="Tracé 617" d="M825.671,494.172s-2.005,8.354-1,12.364,4.01,31.411,4.01,31.411l2.005,21.72,8.02.668-1-25.4,1-22.054,5.681,21.386v25.472l8.505.334.183-33.157s.668-26.064-3.676-29.406-5.012-4.01-5.012-4.01Z" transform="translate(-642.45 -394.697)" fill="#2f2e41"/>
      <path id="Tracé_618" data-name="Tracé 618" d="M837.652,371.7l7.609,4.01,1,34.753s-4.344-2.673-11.027.668-11.027,1-11.027,1l4.01-15.037-1.671-20.049,2.39-2.169Z" transform="translate(-642.323 -308.984)" fill="#cbcbcb"/>
      <path id="Tracé_619" data-name="Tracé 619" d="M815.445,380.269l-1.388,1.131s-8.688,4.344-9.022,7.352l6.015,16.374s1.671,3.676.334,5.012-2.673,4.678-2.339,6.349-2,8.688.668,8.688,9.022-16.04,8.688-22.389S817.836,379.806,815.445,380.269Z" transform="translate(-628.831 -315.006)" fill="#2f2e41"/>
      <path id="Tracé_620" data-name="Tracé 620" d="M859.617,371.762l3.061-.509s11.361,3.007,13.032,8.02l-4.678,11.7s3.342,21.386,2.339,21.386h-1s2.673,2,1,2.673-5.681,6.015-6.683,3.676-7.017-30.074-6.349-36.089S859.024,372.393,859.617,371.762Z" transform="translate(-667.162 -308.668)" fill="#2f2e41"/>
      <path id="Tracé_621" data-name="Tracé 621" d="M834.914,319.275l.3-.6-1.5-.743A4.385,4.385,0,0,0,829.077,316c-2.987.755-4.331,1.206-4.331,1.206l-1.493.751.749.745-1.344.452.9.446-1.045.6.562,3.078s.934-2.334,2.729-1.442,5.08-.461,5.08-.461l2.853,5.522s.589-1.936,1.638-1.42C835.376,325.48,838.057,321.21,834.914,319.275Z" transform="translate(-641.13 -269.694)" fill="#2f2e41"/>
      <path id="Tracé_622" data-name="Tracé 622" d="M895.208,490.7a2.979,2.979,0,0,1,2.13-4.042l1.286-10.51,4.191,3.565-1.864,9.434a3,3,0,0,1-5.743,1.553Z" transform="translate(-692.13 -382.487)" fill="#ffb7b7"/>
      <path id="Tracé_623" data-name="Tracé 623" d="M814.5,489.319a2.979,2.979,0,0,0-2.546-3.793l-2.393-10.314-3.79,3.989,2.854,9.183a3,3,0,0,0,5.875.936Z" transform="translate(-629.35 -381.825)" fill="#ffb7b7"/>
      <path id="Tracé_624" data-name="Tracé 624" d="M894.694,388.494s4.344-1.671,5.681,3.342,3.008,15.037,3.008,15.037c.083,5.574-.213,5.574,0,11.027l-1,5.012-5.681-.668.248-12.76-2.921-12.97Z" transform="translate(-691.454 -320.613)" fill="#2f2e41"/>
      <path id="Tracé_625" data-name="Tracé 625" d="M804.85,402.152l-2.06.22a6.007,6.007,0,0,0-1.95,4.792c0,3.342-.334,13.366-.334,13.366s-.189.235,1.337,8.688a17.478,17.478,0,0,0,2.029,6.065l4.148-3.852-.5-9.9,1.337-5.347Z" transform="translate(-625.638 -330.412)" fill="#2f2e41"/>
      <path id="Tracé_626" data-name="Tracé 626" d="M830.326,738.565h-66.37a.3.3,0,1,1,0-.593h66.37a.3.3,0,0,1,0,.593Z" transform="translate(-599.715 -566.731)" fill="#cbcbcb"/>
      <path id="Tracé_627" data-name="Tracé 627" d="M438.215,738.565H402.956a.3.3,0,0,1,0-.593h35.259a.3.3,0,1,1,0,.593Z" transform="translate(-345.677 -566.731)" fill="#cbcbcb"/>
      <path id="Tracé_628" data-name="Tracé 628" d="M452.124,688.548c-5.781,4.309-7.419,11.892-7.419,11.892s7.734.6,13.515-3.714,7.419-11.892,7.419-11.892S457.9,684.239,452.124,688.548Z" transform="translate(-375.264 -529.318)" fill="#f2f2f2"/>
      <path id="Tracé_629" data-name="Tracé 629" d="M452.372,670.983c-2.778,6.654-9.737,10.082-9.737,10.082s-2.454-7.359.325-14.012,9.737-10.082,9.737-10.082S455.15,664.33,452.372,670.983Z" transform="translate(-373.104 -509.73)" fill="#f2f2f2"/>
    </g>
    <text id="VERS_L_ACCUEIL" data-name="VERS L&apos;ACCUEIL" transform="translate(112 984)" fill="#fff" font-size="25" font-family="Quicksand-Medium, Quicksand" font-weight="500"><tspan x="0" y="0">VERS L&apos;ACCUEIL</tspan></text>
  </g>
</svg>
