<svg xmlns="http://www.w3.org/2000/svg" width="183.534" height="144.096" viewBox="0 0 183.534 144.096">
  <g id="il-close" transform="translate(0 0)">
    <path id="Tracé_634" data-name="Tracé 634" d="M281.791,439.629a.7.7,0,0,0-.7.7v72.412a.7.7,0,0,0,.7.7h90.79a.7.7,0,0,0,.7-.7V451.953a.7.7,0,0,0-.7-.7H320.474a2.122,2.122,0,0,1-1.43-.553l-11.715-10.644a1.639,1.639,0,0,0-1.1-.427Z" transform="translate(-266.545 -370.092)" fill="#3f3d56"/>
    <path id="Tracé_635" data-name="Tracé 635" d="M370.659,400.771a.5.5,0,0,0-.679.176L343.094,446.7a.5.5,0,0,0,.176.679l36.858,21.66a.5.5,0,0,0,.679-.176l26.886-45.752a.5.5,0,0,0-.176-.679Z" transform="translate(-313.483 -340.592)" fill="#e6e6e6"/>
    <path id="Tracé_636" data-name="Tracé 636" d="M378.022,409.742a.5.5,0,0,0-.679.176l-25.278,43.016a.5.5,0,0,0,.176.679l34.122,20.052a.5.5,0,0,0,.679-.176l25.278-43.015a.5.5,0,0,0-.176-.679Z" transform="translate(-320.282 -347.391)" fill="#fff"/>
    <path id="Tracé_637" data-name="Tracé 637" d="M431.7,493.375l25.142,14.775a.744.744,0,1,0,.754-1.283l-25.142-14.775a.744.744,0,0,0-.754,1.283Z" transform="translate(-380.409 -409.774)" fill="#e6e6e6"/>
    <path id="Tracé_638" data-name="Tracé 638" d="M460.365,443.669l16.68,9.8c.235.138.594-.037.8-.391s.186-.753-.049-.891l-16.68-9.8c-.235-.138-.594.037-.8.391S460.13,443.531,460.365,443.669Z" transform="translate(-402.265 -372.146)" fill="#e6e6e6"/>
    <path id="Tracé_639" data-name="Tracé 639" d="M451.441,458.855l16.68,9.8c.235.138.594-.037.8-.391s.186-.753-.049-.891l-16.68-9.8c-.235-.138-.594.037-.8.391S451.206,458.717,451.441,458.855Z" transform="translate(-395.501 -383.655)" fill="#e6e6e6"/>
    <path id="Tracé_640" data-name="Tracé 640" d="M421.637,510.5l25.142,14.775a.744.744,0,0,0,.754-1.283l-25.142-14.775a.744.744,0,1,0-.754,1.283Z" transform="translate(-372.781 -422.756)" fill="#e6e6e6"/>
    <path id="Tracé_641" data-name="Tracé 641" d="M411.572,527.633l25.142,14.775a.744.744,0,1,0,.754-1.283l-25.142-14.775a.744.744,0,0,0-.754,1.283Z" transform="translate(-365.153 -435.737)" fill="#e6e6e6"/>
    <path id="Tracé_642" data-name="Tracé 642" d="M401.506,544.762l25.142,14.775a.744.744,0,1,0,.754-1.283L402.26,543.48a.744.744,0,1,0-.754,1.283Z" transform="translate(-357.524 -448.719)" fill="#e6e6e6"/>
    <path id="Tracé_643" data-name="Tracé 643" d="M391.44,561.891l25.142,14.775a.744.744,0,0,0,.754-1.283l-25.142-14.775a.744.744,0,1,0-.754,1.283Z" transform="translate(-349.896 -461.7)" fill="#e6e6e6"/>
    <path id="Tracé_644" data-name="Tracé 644" d="M381.374,579.021,406.516,593.8a.744.744,0,1,0,.754-1.283l-25.142-14.775a.744.744,0,0,0-.754,1.283Z" transform="translate(-342.267 -474.681)" fill="#e6e6e6"/>
    <circle id="Ellipse_140" data-name="Ellipse 140" cx="3.918" cy="3.918" r="3.918" transform="translate(76.076 82.139)" fill="#e6e6e6"/>
    <path id="Tracé_645" data-name="Tracé 645" d="M503.889,539.457" transform="translate(-435.395 -445.748)" fill="#e6e6e6"/>
    <path id="Tracé_646" data-name="Tracé 646" d="M291.533,455.366a.5.5,0,0,0-.588.382L279.9,507.654a.5.5,0,0,0,.382.588l41.816,8.894a.5.5,0,0,0,.588-.382l11.04-51.906a.5.5,0,0,0-.382-.588Z" transform="translate(-265.638 -382.01)" fill="#e6e6e6"/>
    <path id="Tracé_647" data-name="Tracé 647" d="M298.647,463.14a.5.5,0,0,0-.588.382l-10.38,48.8a.5.5,0,0,0,.382.588l38.711,8.234a.5.5,0,0,0,.588-.382l10.38-48.8a.5.5,0,0,0-.382-.588Z" transform="translate(-271.53 -387.902)" fill="#fff"/>
    <path id="Tracé_648" data-name="Tracé 648" d="M362.178,556.307l-28.524-6.067a.744.744,0,0,1,.309-1.455l28.524,6.067a.744.744,0,1,1-.31,1.455Z" transform="translate(-305.933 -452.805)" fill="#e6e6e6"/>
    <path id="Tracé_649" data-name="Tracé 649" d="M405.889,506.947l-18.924-4.025c-.267-.057-.413-.428-.328-.83s.371-.682.638-.625l18.924,4.025c.267.057.413.429.328.83S406.155,507,405.889,506.947Z" transform="translate(-346.516 -416.951)" fill="#e6e6e6"/>
    <path id="Tracé_650" data-name="Tracé 650" d="M402.224,524.176,383.3,520.151c-.267-.057-.413-.428-.328-.83s.371-.682.638-.625l18.924,4.025c.267.057.413.429.328.83S402.49,524.233,402.224,524.176Z" transform="translate(-343.738 -430.008)" fill="#e6e6e6"/>
    <path id="Tracé_651" data-name="Tracé 651" d="M358.045,575.74l-28.524-6.067a.744.744,0,0,1,.31-1.455l28.524,6.067a.744.744,0,1,1-.31,1.455Z" transform="translate(-302.801 -467.532)" fill="#e6e6e6"/>
    <path id="Tracé_652" data-name="Tracé 652" d="M353.912,595.173l-28.524-6.067a.744.744,0,1,1,.31-1.455l28.524,6.067a.744.744,0,1,1-.31,1.455Z" transform="translate(-299.669 -482.26)" fill="#e6e6e6"/>
    <path id="Tracé_653" data-name="Tracé 653" d="M349.779,614.606l-28.524-6.067a.744.744,0,1,1,.31-1.455l28.524,6.067a.744.744,0,1,1-.31,1.455Z" transform="translate(-296.537 -496.987)" fill="#e6e6e6"/>
    <path id="Tracé_654" data-name="Tracé 654" d="M345.646,634.039l-28.524-6.067a.744.744,0,1,1,.31-1.455l28.524,6.067a.744.744,0,0,1-.31,1.455Z" transform="translate(-293.404 -511.715)" fill="#e6e6e6"/>
    <path id="Tracé_655" data-name="Tracé 655" d="M341.512,653.473l-28.524-6.067a.744.744,0,1,1,.31-1.455l28.524,6.067a.744.744,0,1,1-.31,1.455Z" transform="translate(-290.271 -526.442)" fill="#e6e6e6"/>
    <circle id="Ellipse_141" data-name="Ellipse 141" cx="3.918" cy="3.918" r="3.918" transform="translate(29.491 82.026)" fill="#e6e6e6"/>
    <path id="Tracé_656" data-name="Tracé 656" d="M372.706,562.761" transform="translate(-335.976 -463.409)" fill="#e6e6e6"/>
    <path id="Tracé_657" data-name="Tracé 657" d="M693.545,439.482h0a3.047,3.047,0,0,0,4.666-.847l3.214-5.888-2.431-2.015-5.3,4.014a3.047,3.047,0,0,0-.15,4.736Z" transform="translate(-578.326 -363.349)" fill="#ffb9b9"/>
    <path id="Tracé_658" data-name="Tracé 658" d="M712.393,306.4l3.753,3.027,20.461-15.86-1.211-27.6h0a11.147,11.147,0,0,0-4.122,7.531l-3.506,15.593Z" transform="translate(-593.411 -238.476)" fill="#c14444"/>
    <path id="Tracé_659" data-name="Tracé 659" d="M639.976,406.062h5.085l.484-44.554h-10.17Z" transform="translate(-481.525 -273.972)" fill="#ffb9b9"/>
    <path id="Tracé_660" data-name="Tracé 660" d="M587.976,405.452h5.085l.484-47.46-10.17-.484Z" transform="translate(-442.116 -270.941)" fill="#ffb9b9"/>
    <path id="Tracé_661" data-name="Tracé 661" d="M790.455,441.291l12.591.484.484-2.664.726,3.632,11.623-.484c0-11.777-.253-24.79,1.211-29.3l-26.878,2.664C788.1,424.749,787.835,433.393,790.455,441.291Z" transform="translate(-651.133 -349.881)" fill="#2f2e41"/>
    <path id="Tracé_662" data-name="Tracé 662" d="M873.024,700.586h0c2.718,0,4.849,1.055,4.6-1.651l-.7-9.152a2,2,0,0,0-1.256-1.787h0q-2.906-3.406-5.811-.726h0a4.823,4.823,0,0,0-1.05,2.759l-.394,9.09C868.273,701.759,870.378,700.586,873.024,700.586Z" transform="translate(-711.645 -556.873)" fill="#2f2e41"/>
    <path id="Tracé_663" data-name="Tracé 663" d="M775.663,706.482l12.923-.342a2.191,2.191,0,0,0,1.888-2.236l.244-6.315a1.2,1.2,0,0,0-1.1-1.252l-1.987-.153c-.236-2.162-1.552-2.687-3.39-2.421l-5.811,6.538-3.829,1.072a2.616,2.616,0,0,0-1.881,2.907h0A2.616,2.616,0,0,0,775.663,706.482Z" transform="translate(-639.106 -562.642)" fill="#2f2e41"/>
    <circle id="Ellipse_142" data-name="Ellipse 142" cx="7.506" cy="7.506" r="7.506" transform="translate(143.922 3.271)" fill="#ffb9b9"/>
    <path id="Tracé_664" data-name="Tracé 664" d="M830.393,222.4l12.833-3.632c-2.87-1.116-3.978-3.064-3.39-5.811h-8.475C832.451,217.1,832.456,220.477,830.393,222.4Z" transform="translate(-682.839 -198.31)" fill="#ffb9b9"/>
    <path id="Tracé_665" data-name="Tracé 665" d="M792.393,283.116c7.243.926,13.916-1.879,20.219-4,2.846-.956,5.712.042,8.354-1.574-1.142-11.252-.033-23.925,2.393-37.432a3.2,3.2,0,0,0-2.176-3.619l-7.966-2.535-7.022,2.421-3.632.726-7.479,5.053a2.734,2.734,0,0,0-1.164,2.731A89.646,89.646,0,0,1,792.393,283.116Z" transform="translate(-654.04 -214.225)" fill="#c14444"/>
    <path id="Tracé_666" data-name="Tracé 666" d="M655.375,266.992l2.421,6.3,2.422-3.632-3.148-3.148Z" transform="translate(-496.682 -201.976)" fill="#ffb9b9"/>
    <path id="Tracé_667" data-name="Tracé 667" d="M811.439,160.554a11.836,11.836,0,0,1,8.732-1.963,6.558,6.558,0,0,1,5.148,8.08l-.018.07.434-.815a10.953,10.953,0,0,0,1.115-7.06h0a7.771,7.771,0,0,0-7.975-6.406l-1.633.068a7.829,7.829,0,0,0-7.461,7.016h0a1.076,1.076,0,0,0,1.658,1.009Z" transform="translate(-667.213 -152.453)" fill="#2f2e41"/>
    <path id="Tracé_668" data-name="Tracé 668" d="M881.393,286.336l3.39,4.359,11.865-17.676-1.026-17.958a13.583,13.583,0,0,0-6.964-11.1h0l.242,27.6Z" transform="translate(-721.49 -221.803)" fill="#c14444"/>
    <path id="Tracé_669" data-name="Tracé 669" d="M473.983,354.163a.5.5,0,0,0-.684.153L444.88,399.133a.5.5,0,0,0,.153.684l36.1,22.894a.5.5,0,0,0,.684-.153l28.419-44.817a.5.5,0,0,0-.153-.684Z" transform="translate(-390.616 -305.263)" fill="#c14444"/>
    <path id="Tracé_670" data-name="Tracé 670" d="M481.328,363.208a.5.5,0,0,0-.684.153L453.925,405.5a.5.5,0,0,0,.153.684L487.5,427.376a.5.5,0,0,0,.684-.153l26.719-42.136a.5.5,0,0,0-.153-.684Z" transform="translate(-397.471 -312.118)" fill="#fff"/>
    <path id="Tracé_671" data-name="Tracé 671" d="M561.305,461.576l-24.628-15.617a.744.744,0,1,1,.8-1.257L562.1,460.319a.744.744,0,1,1-.8,1.257Z" transform="translate(-459.981 -373.849)" fill="#c14444"/>
    <path id="Tracé_672" data-name="Tracé 672" d="M619.3,430.429l-16.339-10.361c-.23-.146-.238-.546-.018-.893s.585-.51.815-.364L620.1,429.173c.23.146.238.546.018.893S619.533,430.575,619.3,430.429Z" transform="translate(-510.344 -354.275)" fill="#c14444"/>
    <path id="Tracé_673" data-name="Tracé 673" d="M609.87,445.3l-16.339-10.361c-.23-.146-.238-.546-.018-.893s.585-.51.815-.364l16.339,10.361c.23.146.238.546.018.893S610.1,445.45,609.87,445.3Z" transform="translate(-503.195 -365.548)" fill="#c14444"/>
    <path id="Tracé_674" data-name="Tracé 674" d="M550.665,478.355l-24.628-15.617a.744.744,0,1,1,.8-1.257L551.462,477.1a.744.744,0,0,1-.8,1.257Z" transform="translate(-451.918 -386.565)" fill="#c14444"/>
    <path id="Tracé_675" data-name="Tracé 675" d="M540.025,495.133,515.4,479.516a.744.744,0,0,1,.8-1.257l24.628,15.617a.744.744,0,1,1-.8,1.257Z" transform="translate(-443.854 -399.281)" fill="#c14444"/>
    <path id="Tracé_676" data-name="Tracé 676" d="M529.386,511.912l-24.628-15.617a.744.744,0,1,1,.8-1.257l24.628,15.617a.744.744,0,1,1-.8,1.257Z" transform="translate(-435.791 -411.997)" fill="#c14444"/>
    <path id="Tracé_677" data-name="Tracé 677" d="M518.746,528.691l-24.628-15.617a.744.744,0,1,1,.8-1.257l24.628,15.617a.744.744,0,0,1-.8,1.257Z" transform="translate(-427.728 -424.713)" fill="#c14444"/>
    <path id="Tracé_678" data-name="Tracé 678" d="M508.107,545.469l-24.628-15.617a.744.744,0,1,1,.8-1.257L508.9,544.212a.744.744,0,0,1-.8,1.257Z" transform="translate(-419.665 -437.428)" fill="#6c63ff"/>
    <circle id="Ellipse_143" data-name="Ellipse 143" cx="3.918" cy="3.918" r="3.918" transform="translate(82.111 59.399)" fill="#c14444"/>
    <path id="Tracé_679" data-name="Tracé 679" d="M569.884,470.625" transform="translate(-485.409 -393.583)" fill="#e6e6e6"/>
    <path id="Tracé_680" data-name="Tracé 680" d="M256.307,518.175a.7.7,0,0,0-.7.779l6.071,53.877a.7.7,0,0,0,.7.622h90.99a.7.7,0,0,0,.7-.622l6.071-53.877a.7.7,0,0,0-.174-.545.692.692,0,0,0-.522-.234Z" transform="translate(-247.231 -429.619)" fill="#f5f6fb"/>
    <path id="Tracé_681" data-name="Tracé 681" d="M290.344,550.394l29.162-.158a.744.744,0,0,0-.008-1.488l-29.162.158a.744.744,0,1,0,.008,1.488Z" transform="translate(-272.99 -452.789)" fill="#fff"/>
    <path id="Tracé_682" data-name="Tracé 682" d="M290.344,569.394l17.3-.158a.744.744,0,1,0-.008-1.488l-17.3.158a.744.744,0,0,0,.008,1.488Z" transform="translate(-272.991 -467.188)" fill="#fff"/>
    <path id="Tracé_683" data-name="Tracé 683" d="M183.438,593.441H0v-.528H183.534Z" transform="translate(0 -449.345)" fill="#3f3d56"/>
  </g>
</svg>
