<svg xmlns="http://www.w3.org/2000/svg" width="160.226" height="162.182" viewBox="0 0 160.226 162.182">
  <g id="il-compte" transform="translate(0)">
    <ellipse id="Ellipse_147" data-name="Ellipse 147" cx="20.967" cy="3.406" rx="20.967" ry="3.406" transform="translate(13.948 155.37)" fill="#e6e6e6"/>
    <path id="Tracé_704" data-name="Tracé 704" d="M418.4,143.573l-84.38-17.579V44.038L418.4,0Z" transform="translate(-258.173)" fill="#e6e6e6"/>
    <path id="Tracé_705" data-name="Tracé 705" d="M417.5,9.555l-84.38,40.386v-4.75L417.5,1.227Z" transform="translate(-257.476 -0.948)" fill="#6c63ff"/>
    <path id="Tracé_706" data-name="Tracé 706" d="M591.908,284.984c0,1.093-.368,2.156-.819,2.373s-.808-.485-.808-1.563a3.017,3.017,0,0,1,.808-2.367C591.54,283.195,591.908,283.891,591.908,284.984Z" transform="translate(-512.374 -240.126)" fill="#e6e6e6"/>
    <path id="Tracé_707" data-name="Tracé 707" d="M606.338,277.954c0,1.063-.368,2.1-.819,2.316s-.808-.463-.808-1.511a2.916,2.916,0,0,1,.808-2.311C605.97,276.218,606.338,276.891,606.338,277.954Z" transform="translate(-523.527 -234.731)" fill="#e6e6e6"/>
    <path id="Tracé_708" data-name="Tracé 708" d="M620.769,270.738c0,1.063-.368,2.1-.819,2.316s-.808-.463-.808-1.511a2.916,2.916,0,0,1,.808-2.311C620.4,269,620.769,269.676,620.769,270.738Z" transform="translate(-534.682 -229.154)" fill="#e6e6e6"/>
    <path id="Tracé_709" data-name="Tracé 709" d="M432.076,207.7l-52.021,11.9V204.428l52.021-18.391Z" transform="translate(-293.754 -143.793)" opacity="0.2"/>
    <path id="Tracé_710" data-name="Tracé 710" d="M427.53,203.159l-52.021,11.9V199.882l52.021-18.391Z" transform="translate(-290.241 -140.279)" fill="#fff"/>
    <path id="Tracé_711" data-name="Tracé 711" d="M651.385,367.754c0,2.445-.925,4.664-2.048,4.952-1.1.282-1.985-1.413-1.985-3.783s.881-4.576,1.985-4.933C650.46,363.626,651.385,365.309,651.385,367.754Z" transform="translate(-556.486 -302.391)" opacity="0.2"/>
    <path id="Tracé_712" data-name="Tracé 712" d="M648.658,365.027c0,2.445-.925,4.664-2.048,4.952-1.1.282-1.985-1.413-1.985-3.783s.881-4.576,1.985-4.933C647.733,360.9,648.658,362.581,648.658,365.027Z" transform="translate(-554.378 -300.283)" fill="#6c63ff"/>
    <path id="Tracé_713" data-name="Tracé 713" d="M464.533,236.644l-24.986,7.215v-2.554l24.986-7.683Z" transform="translate(-339.737 -180.573)" fill="#e6e6e6"/>
    <path id="Tracé_714" data-name="Tracé 714" d="M474.135,269.177,459.389,272.9v-2.638l14.746-4Z" transform="translate(-355.074 -205.802)" fill="#e6e6e6"/>
    <path id="Tracé_715" data-name="Tracé 715" d="M432.083,372.4l-52.021-4.361V337.583l52.021-8.685Z" transform="translate(-293.76 -254.214)" opacity="0.2"/>
    <path id="Tracé_716" data-name="Tracé 716" d="M426.628,367.854l-52.021-4.361V333.037l52.021-8.685Z" transform="translate(-289.544 -250.701)" fill="#fff"/>
    <path id="Tracé_717" data-name="Tracé 717" d="M404.216,391.261l-2.435.227v-2.661l2.435-.278Z" transform="translate(-310.547 -300.32)" opacity="0.2"/>
    <path id="Tracé_718" data-name="Tracé 718" d="M402.4,389.443l-2.435.227v-2.661l2.435-.278Z" transform="translate(-309.142 -298.915)" fill="#6c63ff"/>
    <path id="Tracé_719" data-name="Tracé 719" d="M450.59,375.169l-29.082,2.722v-2.477l29.082-3.267Z" transform="translate(-325.795 -287.643)" fill="#e6e6e6"/>
    <path id="Tracé_720" data-name="Tracé 720" d="M450.59,418.627l-29.082.941v-2.477l29.082-1.487Z" transform="translate(-325.795 -321.232)" fill="#e6e6e6"/>
    <path id="Tracé_721" data-name="Tracé 721" d="M450.59,462.031l-29.082-.884V458.67l29.082.339Z" transform="translate(-325.795 -354.519)" fill="#e6e6e6"/>
    <path id="Tracé_722" data-name="Tracé 722" d="M124.418,319.97h-5.566v-2.726h4.657l1.022.568Z" transform="translate(-91.864 -245.207)" fill="#575a89"/>
    <path id="Tracé_723" data-name="Tracé 723" d="M100.843,657.583l.227,4.089,3.408-.682-.568-4.089Z" transform="translate(-77.944 -507.737)" fill="#ffb9b9"/>
    <path id="Tracé_724" data-name="Tracé 724" d="M418.093,740.29a20.8,20.8,0,0,1-.227,4.316c-.341.909.909,1.363.909,1.363H421.5l1.59.227v-1.7s-1.817-2.84-1.817-4.43S418.093,740.29,418.093,740.29Z" transform="translate(-379.065 -592.602)" fill="#ffb9b9"/>
    <path id="Tracé_725" data-name="Tracé 725" d="M345.9,765.643s2.272-1.073,3.067-.423,3.748,6.216,2.613,6.557c0,0-.8,1.363-3.521.454s-2.726-1.931-2.726-1.931-.8-.682-.8-.909.341-2.272.341-2.272.252-1.711.637-1.594Z" transform="translate(-322.428 -612.389)" fill="#2f2e41"/>
    <path id="Tracé_726" data-name="Tracé 726" d="M415.374,759.776s-.341-.341-.568,0-1.477,4.657-.341,4.884,2.84,1.022,3.067.8a3.112,3.112,0,0,0,.454-.8,8.936,8.936,0,0,1,2.385,1.477c.568.682,7.383,2.158,7.156,0s-3.635-3.976-3.635-3.976l-3.748-2.5s-1.477.114-1.817.8S415.6,761.025,415.374,759.776Z" transform="translate(-376.118 -608.226)" fill="#2f2e41"/>
    <path id="Tracé_727" data-name="Tracé 727" d="M269.926,491.307s-1.25,1.59-1.022,1.7,5.225,1.249,7.951.568,8.406-.568,8.746-1.363,4.544-10.677,4.544-10.677l-1.363-7.5-1.477-1.931-3.408-2.953-6.815,12.722Z" transform="translate(-263.952 -383.716)" fill="#575a89"/>
    <path id="Tracé_728" data-name="Tracé 728" d="M269.926,491.307s-1.25,1.59-1.022,1.7,5.225,1.249,7.951.568,8.406-.568,8.746-1.363,4.544-10.677,4.544-10.677l-1.363-7.5-1.477-1.931-3.408-2.953-6.815,12.722Z" transform="translate(-263.952 -383.716)" opacity="0.1"/>
    <path id="Tracé_729" data-name="Tracé 729" d="M334.623,546.577a31.491,31.491,0,0,0,0,13.517c1.59,7.838.114,9.542.454,9.882s.454.227.454.568.341,1.931,0,2.5-.341,18.629.682,19.083,3.976,1.59,4.544,0,.114-13.063.341-13.631a8.522,8.522,0,0,0,.227-2.272c0-.341.682-4.2.8-5.225s.454-3.067.454-3.067-.227-8.065.454-10.45a10.075,10.075,0,0,1,.909-2.613l5.452,14.2s-.454,1.477,0,1.931-.114.341.341,1.136.909,1.022.909,1.477-.454.454-.227.8a9.291,9.291,0,0,1,.568,1.59l-.568,1.363a42.37,42.37,0,0,0,.8,4.544c.454,1.7.454,8.633,1.022,8.746s5,1.363,5-1.249-.341-13.971-.341-13.971a12.25,12.25,0,0,1-.682-2.158c0-.454-.114-.682.114-.909a.719.719,0,0,0,.114-1.022c-.341-.341-.227-.8-.227-1.249a9.942,9.942,0,0,0-.227-1.817c-.114-.454-2.272-14.653-2.272-14.653s.454-1.7,0-1.817-.454-1.022-.454-1.477,1.136-6.134-.227-6.134S334.623,546.577,334.623,546.577Z" transform="translate(-314.223 -441.712)" fill="#2f2e41"/>
    <path id="Tracé_730" data-name="Tracé 730" d="M252.6,524.682l-1.59.8s-5.679,3.067-3.18,4.771,5-2.385,5-2.385l2.385-1.817Z" transform="translate(-247.191 -426.633)" fill="#ffb9b9"/>
    <path id="Tracé_731" data-name="Tracé 731" d="M354.4,386.231s-.454,5.225-2.84,6.361-.8,9.655-.8,9.655l3.294,3.18,5.793-1.7.682-3.862.568-3.976-1.363-2.045s-1.7-.454-1.022-5S354.4,386.231,354.4,386.231Z" transform="translate(-326.848 -319.305)" fill="#ffb9b9"/>
    <path id="Tracé_732" data-name="Tracé 732" d="M335.878,419.769s2.612,8.633,4.43,8.633,2.84-2.045,3.067-4.544a16.142,16.142,0,0,1,1.7-5.225l3.521,3.18s2.84,25.1,2.613,25.785-9.087,1.477-12.608,2.5-7.043.227-7.043-.341c0-.506,1.8-4.886.431-8.085a13.325,13.325,0,0,1-1.006-3.577,17.643,17.643,0,0,1-.22-4.354c.341-1.136,2.158-13.176,2.158-13.176Z" transform="translate(-311.729 -344.665)" fill="#6c63ff"/>
    <path id="Tracé_733" data-name="Tracé 733" d="M290.244,409.793s-2.037,1.09-2.946,1.544-6.475,1.817-6.588,2.5.8,10.223.341,11.245-5,10.109-5,10.109l-.227,1.931s-7.5,8.974-6.588,10,4.316-3.18,4.316-3.18,7.61-12.154,7.838-12.608,4.884-8.86,5.566-9.087,2.272-9.769,2.5-10.223S290.577,409.612,290.244,409.793Z" transform="translate(-264.172 -337.823)" fill="#575a89"/>
    <path id="Tracé_734" data-name="Tracé 734" d="M279.984,427.137H279.3s-2.5,9.541-3.18,10.791a13.632,13.632,0,0,0-.909,3.635c-.114.341-.568.227-.682,1.022s-1.25,1.817-2.158,2.272a33.029,33.029,0,0,0-4.884,4.43c.114.114,1.363,4.089,2.158,4.089s3.976-3.862,4.316-3.862,1.817-1.363,2.045-1.477,6.02-10.791,5.793-13.4A47.138,47.138,0,0,0,279.984,427.137Z" transform="translate(-262.878 -351.238)" fill="#575a89"/>
    <path id="Tracé_735" data-name="Tracé 735" d="M437.7,556.734l1.4,1.1s4.951,4.141,2.162,5.31-4.42-3.337-4.42-3.337l-1.974-2.258Z" transform="translate(-392.248 -451.407)" fill="#ffb9b9"/>
    <path id="Tracé_736" data-name="Tracé 736" d="M386.941,410.426a14.286,14.286,0,0,1,2.183,1.3c.682.568,5.907,2.045,5.907,2.5s-.568,7.5-.568,7.5l.8,12.495s1.136,14.085,1.363,14.426.568,2.158,0,2.158-3.408-3.18-3.294-4.771.909-5.225.114-6.134-4.544-16.13-4.544-17.038-1.59-10-1.477-10.223A10.63,10.63,0,0,0,386.941,410.426Z" transform="translate(-355.207 -338.321)" fill="#575a89"/>
    <path id="Tracé_737" data-name="Tracé 737" d="M414.292,426.637l1.7.114,4.2,17.152s.341,2.158.454,2.385,1.817,10.109,1.136,10.45-2.953,1.59-3.067.8-1.249-5.225-2.385-6.247-2.272-18.629-2.272-18.629Z" transform="translate(-376.172 -350.851)" fill="#575a89"/>
    <circle id="Ellipse_148" data-name="Ellipse 148" cx="4.657" cy="4.657" r="4.657" transform="translate(26.647 60.678)" fill="#ffb9b9"/>
    <path id="Tracé_738" data-name="Tracé 738" d="M354.737,357.757a.816.816,0,0,1,.96.322,4.546,4.546,0,0,1,6.607-3.071v-.473a3.933,3.933,0,0,0-3.933-3.933h-.945a7.389,7.389,0,0,0-7.389,7.389v1.319a6.625,6.625,0,0,0,3.628,5.909l4.252-2.252a4.546,4.546,0,0,1-2.277-3.377.932.932,0,0,1-1.093-.585A.916.916,0,0,1,354.737,357.757Z" transform="translate(-326.682 -292.081)" fill="#2f2e41"/>
  </g>
</svg>
