<svg xmlns="http://www.w3.org/2000/svg" width="203.51" height="181.02" viewBox="0 0 203.51 181.02">
  <g id="il-response" transform="translate(0 0.281)">
    <path id="Tracé_684" data-name="Tracé 684" d="M313.813,226.652l-7.733,8.669c6.424,2.725,12.927-1.058,15.593-2.955a38.622,38.622,0,1,0-7.86-5.714Z" transform="translate(-293.023 -160.176)" fill="#e6e6e6"/>
    <path id="Tracé_685" data-name="Tracé 685" d="M354.833,254.545c7.978-.083,15.955-.226,23.932-.334q3.989-.054,7.979-.1c2.292-.024,2.3-3.587,0-3.563-7.978.083-15.955.226-23.932.334q-3.989.054-7.979.1c-2.292.024-2.3,3.587,0,3.563Z" transform="translate(-328.421 -222.535)" fill="#fff"/>
    <path id="Tracé_686" data-name="Tracé 686" d="M354.833,281.182l32.243-.334,9.17-.1c2.292-.024,2.3-3.587,0-3.563L364,277.523l-9.17.1C352.541,277.642,352.535,281.205,354.833,281.182Z" transform="translate(-328.421 -240.857)" fill="#fff"/>
    <path id="Tracé_687" data-name="Tracé 687" d="M354.833,307.82l32.243-.334,9.17-.1c2.292-.024,2.3-3.587,0-3.563L364,304.161l-9.17.1C352.541,304.28,352.535,307.843,354.833,307.82Z" transform="translate(-328.421 -259.181)" fill="#fff"/>
    <circle id="Ellipse_144" data-name="Ellipse 144" cx="2.809" cy="2.809" r="2.809" transform="translate(0 77.023)" fill="#e6e6e6"/>
    <path id="Tracé_688" data-name="Tracé 688" d="M708.226,371.712l-1.57,9.8a4.25,4.25,0,0,1-5.6,3.339h0a4.25,4.25,0,0,1-2.311-6.072l5.11-9.216L723.6,330.111a6.907,6.907,0,0,1,7.831-3.123l2.093.6-3.112,9.127Z" transform="translate(-565.798 -274.931)" fill="#a0616a"/>
    <path id="Tracé_689" data-name="Tracé 689" d="M613.763,493.361l4.624-.243-5.11-17.035-7.3,1.46Z" transform="translate(-416.824 -327.669)" fill="#a0616a"/>
    <path id="Tracé_690" data-name="Tracé 690" d="M482.791,505.1H487.9l2.677-16.549h-7.788Z" transform="translate(-332.091 -336.25)" fill="#a0616a"/>
    <path id="Tracé_691" data-name="Tracé 691" d="M782.753,223.512a13.791,13.791,0,1,0,27.581.293c0-.1,0-.2,0-.293a13.792,13.792,0,1,0-27.585,0Z" transform="translate(-623.952 -194.448)" fill="#2f2e41"/>
    <circle id="Ellipse_145" data-name="Ellipse 145" cx="7.105" cy="7.105" r="7.105" transform="translate(171.34 7.33)" fill="#2f2e41"/>
    <path id="Tracé_692" data-name="Tracé 692" d="M837.107,201.881a7.1,7.1,0,0,0,8.582-10.238,7.1,7.1,0,1,1-11.4,8.343A7.069,7.069,0,0,0,837.107,201.881Z" transform="translate(-659.403 -182.014)" fill="#2f2e41"/>
    <circle id="Ellipse_146" data-name="Ellipse 146" cx="7.969" cy="7.969" r="7.969" transform="translate(163.537 28.266)" fill="#a0616a"/>
    <path id="Tracé_693" data-name="Tracé 693" d="M801.026,286.2s.73,9.248,5.354,11.195l-18.009,16.549-5.841-2.677,4.137-11.681s9.491-1.947,5.6-10.465Z" transform="translate(-623.8 -247.053)" fill="#a0616a"/>
    <path id="Tracé_694" data-name="Tracé 694" d="M743.362,422.272,756.5,423l6.084-45.752,15.819,45.509,15.819-5.111-15.575-52.079c-4.01-14.406-.636-30.239,4.867-46.482l-6.084-1.7-13.872,1.947h0a8.056,8.056,0,0,0-7.029,4.142c-3.417,6.118-5.888,12.054-3.873,17.124C744.583,361.732,742.841,390.618,743.362,422.272Z" transform="translate(-596.799 -268.505)" fill="#2f2e41"/>
    <path id="Tracé_695" data-name="Tracé 695" d="M860.285,372.143l-3.38,9.334a4.25,4.25,0,0,0,3.281,5.637h0a4.25,4.25,0,0,0,4.966-4.19V372.387l1.856-44.083a6.907,6.907,0,0,0-5.335-6.528l-2.119-.494-1.7,9.491Z" transform="translate(-674.784 -271.186)" fill="#a0616a"/>
    <path id="Tracé_696" data-name="Tracé 696" d="M901.046,696.559h0a4.3,4.3,0,0,0,4.295-3.253l.162-.647a15.426,15.426,0,0,0-.588-9.332l-1.629-4.188-4.867,2.19-1.5,10.318a4.3,4.3,0,0,0,4.126,4.912Z" transform="translate(-702.453 -517.341)" fill="#2f2e41"/>
    <path id="Tracé_697" data-name="Tracé 697" d="M727.857,706.128h0a3.662,3.662,0,0,0,3.561.137l9.267-5.22a3.331,3.331,0,0,0,1.646-3.481l-1.05-5.951H735.44l-8.347,8.88a3.661,3.661,0,0,0,.764,5.635Z" transform="translate(-584.983 -525.922)" fill="#2f2e41"/>
    <path id="Tracé_698" data-name="Tracé 698" d="M783.157,221.652c2.161,5.237,7.745,8.965,14.294,8.965a15.608,15.608,0,0,0,13.161-6.813c0-.1,0-.2,0-.293a13.793,13.793,0,0,0-27.46-1.86Z" transform="translate(-624.231 -194.448)" fill="#2f2e41"/>
    <path id="Tracé_699" data-name="Tracé 699" d="M535.451,293.527a38.548,38.548,0,1,0-20.022,33.819c2.666,1.9,9.169,5.68,15.593,2.955l-7.733-8.669a38.454,38.454,0,0,0,12.162-28.105Z" transform="translate(-400.813 -225.588)" fill="#43bcbc"/>
    <path id="Tracé_700" data-name="Tracé 700" d="M514.856,349.273c7.978-.083,15.955-.226,23.932-.334q3.989-.054,7.979-.1c2.292-.024,2.3-3.587,0-3.563-7.978.083-15.955.226-23.932.334q-3.989.054-7.979.1C512.564,345.733,512.558,349.3,514.856,349.273Z" transform="translate(-438.494 -287.694)" fill="#fff"/>
    <path id="Tracé_701" data-name="Tracé 701" d="M514.856,375.91l32.243-.334,9.17-.095c2.292-.024,2.3-3.587,0-3.563l-32.244.334-9.17.1c-2.292.024-2.3,3.587,0,3.563Z" transform="translate(-438.494 -306.017)" fill="#fff"/>
    <path id="Tracé_702" data-name="Tracé 702" d="M514.856,402.548l32.243-.334,9.17-.1c2.292-.024,2.3-3.587,0-3.563l-32.243.334-9.17.1C512.564,399.008,512.558,402.571,514.856,402.548Z" transform="translate(-438.494 -324.34)" fill="#fff"/>
  </g>
</svg>
