<svg xmlns="http://www.w3.org/2000/svg" width="28.944" height="28.944" viewBox="0 0 28.944 28.944">
  <path id="Icon_awesome-wrench" data-name="Icon awesome-wrench" d="M25.683,5.519a.607.607,0,0,0-1.018-.279L20.9,9,17.47,8.429,16.9,5l3.761-3.761a.608.608,0,0,0-.286-1.02,7.249,7.249,0,0,0-8.631,9.365L.948,20.373a3.237,3.237,0,0,0,4.578,4.578L16.311,14.166a7.26,7.26,0,0,0,9.372-8.647ZM3.237,23.876a1.214,1.214,0,1,1,1.214-1.214A1.214,1.214,0,0,1,3.237,23.876Z" transform="translate(1.5 1.545)" fill="none" stroke="#acafbc" stroke-width="3"/>
</svg>
